<svg width="100" height="230" viewBox="0 0 100 230" fill="none" xmlns="http://www.w3.org/2000/svg">
<path d="M66.8744 119.943C68.2263 118.992 99.996 96.1291 99.996 52.6658L99.996 20.5418L48.6054 8.49843e-06L15.017 10.0237L15.017 48.3359L0.791984 51.5969L0.791983 54.8588C0.791976 94.9852 27.6159 115.665 51.2809 133.913C59.1602 139.719 66.6709 146.013 73.7695 152.756L27.7491 152.018C31.2116 148.591 34.8721 145.372 38.7118 142.376L44.1942 137.908L37.5057 132.812L33.6197 135.979C-2.631 164.457 -9.60632 196.089 12.8894 230L19.6855 225.468C17.7211 222.518 15.9453 219.447 14.3688 216.272L91.2111 200.64C90.5294 205.794 89.1397 210.829 87.0815 215.602L94.5586 218.886C98.2463 210.228 100.098 200.896 99.996 191.482C99.996 161.15 77.7593 144.006 56.2567 127.425C33.7112 110.041 10.4197 92.0796 9.0214 58.1057L60.4471 46.3177L60.447 124.467L66.8744 119.943ZM87.2851 171.073L10.3205 178.902C12.5474 172.053 16.0147 165.675 20.5488 160.086L81.1125 161.058C83.5143 164.17 85.5832 167.527 87.2851 171.073V171.073ZM11.1277 208.579C8.68193 201.774 7.79861 194.503 8.54349 187.309L90.2089 179.002C91.2981 183.071 91.8437 187.268 91.8315 191.482C91.8315 191.712 91.8179 191.935 91.8157 192.164L11.1277 208.579ZM68.6115 107.565L68.6115 47.0336L91.739 55.4948C90.839 75.1505 82.5806 93.7435 68.6115 107.565V107.565ZM91.8315 46.8155L64.795 36.9243L52.4933 39.7444L52.4933 10.3645L91.8316 26.0898L91.8315 46.8155ZM23.1814 16.1278L44.3287 9.81549L44.3287 41.6162L23.1814 46.4641L23.1814 16.1278Z" fill="url(#paint0_linear_2_3)" fill-opacity="0.2"/>
<defs>
<linearGradient id="paint0_linear_2_3" x1="50" y1="7.79936e-06" x2="13.3137" y2="253.083" gradientUnits="userSpaceOnUse">
<stop stop-color="white"/>
<stop offset="0.862499" stop-color="#284069"/>
</linearGradient>
</defs>
</svg>
